P3
# CREATOR: GIMP PNM Filter Version 1.1
64 64
255
16
12
8
8
4
0
24
28
16
33
40
16
49
56
41
90
97
74
115
117
99
140
146
123
165
182
140
181
203
140
198
223
132
189
227
107
198
227
99
206
231
99
214
231
107
214
227
115
198
215
115
198
211
123
181
199
123
148
170
107
99
134
82
49
97
57
24
73
41
24
52
33
49
52
41
74
69
57
107
105
74
156
158
107
198
211
132
214
235
132
206
235
123
206
235
123
198
223
132
189
207
140
123
117
99
24
32
24
41
89
57
107
190
107
132
235
82
173
255
82
206
255
66
206
255
82
181
251
115
148
247
148
115
247
173
66
178
132
57
117
82
16
44
8
16
36
0
66
77
41
99
105
66
132
138
90
165
170
107
165
186
115
165
207
115
156
207
107
148
195
99
123
166
74
123
150
74
90
105
49
74
69
33
57
48
33
24
16
16
8
4
8
33
48
41
16
32
24
16
28
8
0
20
0
16
36
16
57
73
49
82
97
74
115
125
107
140
154
115
165
186
123
189
211
123
198
223
115
198
227
107
206
227
107
206
227
107
206
219
115
198
219
123
198
219
132
189
203
132
148
170
107
99
130
82
66
97
57
33
69
41
24
48
33
33
32
24
66
52
41
90
85
66
132
134
90
173
186
115
198
219
132
206
231
123
206
235
132
198
227
140
173
190
132
90
97
74
16
32
16
66
117
74
148
223
132
173
255
99
206
255
82
222
255
57
231
255
82
198
255
115
165
251
148
123
243
173
74
178
132
41
93
57
0
28
0
33
60
16
90
109
66
140
142
90
173
174
115
198
199
132
189
211
132
189
223
123
173
219
123
181
227
123
165
199
107
148
174
107
115
130
74
90
89
57
66
60
41
24
24
24
24
20
24
24
65
57
41
85
74
49
89
66
16
60
33
0
36
8
0
32
8
16
44
33
66
89
74
99
109
82
132
142
99
165
178
115
189
203
115
198
215
115
198
223
115
198
223
123
198
223
123
189
215
123
189
211
123
173
190
115
148
162
99
115
130
82
90
97
66
57
60
41
33
32
24
24
12
8
41
28
24
57
48
33
90
93
66
140
154
99
173
199
123
181
211
115
181
211
115
156
199
115
123
154
99
49
69
49
16
44
16
99
150
90
189
243
140
206
255
90
231
251
49
255
247
41
255
251
66
222
251
99
181
247
140
140
231
156
82
166
123
33
60
41
16
28
8
57
89
41
123
146
82
173
182
115
198
207
132
214
219
132
206
223
123
206
231
123
198
231
123
189
227
132
181
207
123
156
174
107
123
130
82
82
89
66
41
48
33
8
20
16
16
36
33
41
109
90
66
138
115
66
138
107
41
113
74
24
93
57
0
60
33
0
32
16
8
36
16
57
73
57
90
97
66
132
134
82
156
166
99
173
186
107
181
203
115
181
211
123
181
215
132
189
219
140
173
203
132
156
182
107
140
154
90
107
117
74
74
69
41
33
28
16
8
8
0
24
32
24
24
32
24
16
28
16
24
44
24
82
101
66
132
154
107
148
174
107
148
174
99
132
162
99
82
117
74
24
60
33
33
77
41
115
178
115
198
251
140
222
255
82
239
255
49
255
247
41
255
247
57
222
243
90
181
239
123
123
207
132
66
138
99
16
36
24
49
52
33
90
121
66
140
174
99
181
203
115
206
219
123
214
223
115
214
227
115
214
235
115
206
231
115
198
223
123
189
211
132
165
174
115
123
134
90
82
89
66
24
40
24
0
32
16
41
73
66
66
158
123
90
186
148
90
186
140
74
170
115
66
158
107
41
117
82
8
73
49
8
48
33
24
44
33
49
56
41
82
85
57
115
117
74
140
150
90
148
170
99
148
182
115
148
190
123
148
195
140
140
178
115
132
154
90
115
130
74
74
81
49
33
36
24
16
28
24
16
48
41
49
93
74
41
97
66
16
73
49
0
48
24
8
48
33
49
77
57
99
109
66
123
134
90
99
117
74
49
81
41
0
44
16
33
93
57
123
195
123
173
247
132
206
255
90
231
255
74
247
255
49
239
251
66
206
247
99
173
235
123
107
178
107
41
97
57
8
20
8
74
77
57
115
150
90
156
199
107
189
219
115
214
227
115
222
231
107
222
235
99
222
239
107
214
231
107
206
219
115
198
215
132
165
174
123
115
130
90
66
81
57
8
36
16
8
52
33
57
117
99
82
195
140
123
231
173
123
235
165
123
227
148
115
211
140
82
170
107
57
130
90
41
93
74
8
40
24
16
36
24
41
44
24
74
73
41
99
109
66
115
134
82
115
146
99
115
154
107
107
146
107
99
138
99
99
125
66
82
93
41
33
48
16
8
28
8
33
69
57
74
130
107
82
158
115
99
186
132
90
178
132
41
125
90
0
65
49
0
36
24
24
44
16
66
69
41
57
69
41
16
40
16
0
32
8
49
105
74
123
207
148
156
243
148
181
255
107
198
255
90
214
255
82
206
255
90
181
247
115
148
223
123
82
150
90
16
65
33
16
32
16
90
97
74
132
166
99
173
211
123
198
227
123
214
231
115
231
239
107
231
239
99
222
239
99
206
227
99
206
219
115
198
211
132
156
162
115
107
117
82
41
65
41
0
28
8
16
77
49
82
146
123
123
239
148
140
251
156
140
243
140
148
247
148
165
251
156
148
231
148
115
190
132
66
130
90
41
85
66
24
52
41
8
32
16
24
40
16
57
69
41
74
89
57
82
105
74
90
117
90
90
117
99
90
113
82
74
93
49
41
60
16
0
36
0
0
56
24
49
121
90
99
186
132
123
219
132
148
247
148
148
247
165
123
211
148
74
150
115
24
81
66
8
36
16
16
24
0
33
36
16
24
28
16
8
32
24
49
97
82
107
182
140
132
223
156
148
247
140
156
255
123
156
255
123
156
251
123
140
223
123
99
178
107
49
109
66
0
44
16
33
60
41
90
109
82
132
166
107
181
211
123
198
227
123
214
231
107
222
235
99
222
235
90
222
239
99
206
223
99
206
223
123
189
203
132
140
154
107
90
109
82
33
56
33
0
44
24
49
117
82
107
186
148
140
243
123
165
255
140
165
251
123
173
251
123
173
243
115
165
235
123
156
231
148
123
190
132
90
154
115
41
97
74
0
40
24
0
28
8
16
36
16
41
56
33
57
73
49
66
81
66
57
77
66
57
69
49
41
52
16
16
36
0
8
52
16
41
113
74
90
190
132
140
239
156
173
255
132
173
255
115
165
247
123
156
243
140
140
223
165
90
162
123
41
81
49
16
32
8
16
16
0
24
20
8
0
12
8
16
52
41
49
109
90
82
162
115
123
215
148
132
235
148
123
231
140
123
223
140
99
182
115
57
121
74
16
69
41
0
24
8
49
77
57
90
117
82
140
166
115
181
211
140
206
223
132
206
223
107
214
227
90
214
231
90
214
239
99
198
227
107
189
211
123
165
186
123
115
130
90
74
89
66
16
48
24
0
48
24
66
138
99
123
203
165
165
247
99
181
255
107
206
255
99
206
255
90
206
251
99
198
247
107
173
239
132
148
227
140
99
182
123
74
154
115
33
93
66
8
52
33
0
28
8
16
28
16
49
52
41
41
44
41
49
52
49
33
36
24
33
28
0
16
28
0
24
81
41
66
146
90
123
223
148
156
251
140
206
255
107
214
251
82
222
255
107
198
255
123
156
235
148
115
199
140
57
113
66
8
48
16
16
20
0
41
28
16
24
32
24
0
20
8
8
40
33
41
85
66
66
117
90
82
146
107
90
154
115
82
142
107
82
130
107
41
77
57
0
32
16
16
40
33
49
73
57
82
109
82
132
154
115
165
186
132
206
215
140
206
219
123
206
219
107
198
223
99
198
223
99
181
219
107
173
207
123
140
166
107
99
117
82
49
69
49
0
28
0
33
85
57
90
162
123
148
231
181
189
251
82
206
255
82
222
255
74
231
251
74
231
251
74
214
251
90
181
243
115
156
239
132
123
223
148
82
186
132
41
121
82
24
81
57
8
40
24
0
16
0
33
28
16
33
24
16
33
32
33
33
24
16
33
20
0
24
28
0
49
101
66
90
170
123
132
231
156
156
239
132
214
251
99
231
251
74
231
255
90
198
247
107
165
243
140
132
211
148
66
130
82
24
65
33
8
16
0
49
40
24
57
65
41
41
60
41
24
48
33
16
40
24
8
32
24
16
40
24
41
73
57
33
60
49
41
65
57
24
40
33
8
20
16
24
36
33
49
69
57
90
109
90
107
125
99
140
154
115
173
186
132
189
203
123
198
219
123
198
227
123
189
223
115
173
207
115
148
182
115
115
146
99
82
101
74
33
56
41
0
28
8
41
93
57
99
170
123
148
235
181
206
251
66
222
255
66
247
255
57
255
251
49
247
251
57
231
251
74
198
251
99
165
247
123
123
239
148
82
195
132
49
142
99
41
105
74
24
56
33
8
16
8
33
24
16
41
32
33
24
28
33
33
28
33
33
16
16
24
16
8
49
89
74
82
154
123
123
215
156
156
239
140
206
255
115
222
255
99
214
255
107
189
251
115
165
247
156
123
199
140
49
93
66
0
28
8
57
60
41
90
97
66
107
130
90
107
138
90
90
121
82
66
85
49
49
52
33
41
40
33
24
20
16
8
4
0
8
12
8
8
12
8
0
8
0
16
20
8
33
40
33
57
69
57
90
101
82
107
125
99
140
150
107
156
170
115
165
186
115
173
199
115
156
195
115
140
182
115
123
158
99
99
125
90
66
85
66
24
48
24
8
40
16
57
109
74
107
182
132
148
235
181
214
251
57
231
255
57
255
255
49
255
247
41
255
247
41
239
255
66
198
255
90
165
251
123
140
247
156
90
207
140
66
158
115
41
113
82
16
52
33
8
16
0
24
20
8
41
36
33
33
40
41
41
48
57
33
24
33
16
8
16
24
48
49
41
101
82
90
170
132
148
235
165
173
235
123
189
247
115
189
251
123
165
239
132
148
223
148
90
158
115
33
60
41
16
24
16
82
93
66
115
134
90
123
158
99
132
174
107
140
174
107
123
154
90
107
117
82
90
85
66
66
52
41
41
32
33
24
28
16
16
20
8
8
16
0
16
24
8
24
32
24
24
32
24
41
60
49
66
85
66
99
113
82
115
134
90
123
146
90
123
154
99
123
154
99
115
150
99
107
134
90
82
105
82
57
73
49
16
36
16
16
48
16
66
125
82
115
195
140
148
239
173
206
251
66
222
255
66
255
251
49
255
247
41
255
247
41
239
255
57
198
255
90
165
251
123
140
243
148
99
207
140
66
158
115
33
93
66
8
36
16
8
20
8
33
32
16
49
56
41
49
65
49
57
73
66
49
48
41
24
28
33
16
32
33
8
52
49
33
101
82
99
174
132
123
207
132
140
223
140
148
231
148
123
207
132
90
158
115
41
85
57
24
36
33
66
65
57
115
130
99
165
186
132
173
211
132
173
219
132
181
227
132
173
211
123
148
174
115
115
125
90
82
81
57
49
52
41
16
28
8
0
16
0
0
16
0
0
28
8
16
28
24
0
16
8
0
32
16
8
44
16
33
65
33
57
85
57
82
101
66
90
113
82
90
117
82
90
117
82
90
105
82
74
81
66
49
52
41
8
24
0
16
52
24
66
130
82
107
195
140
140
243
173
198
247
74
222
255
74
247
255
57
255
251
49
255
251
49
239
255
66
198
255
90
165
251
123
132
235
148
90
190
132
57
134
107
16
65
49
0
28
8
24
40
24
57
65
49
74
85
57
82
97
66
90
101
74
74
89
66
74
81
66
49
65
49
16
48
33
0
44
24
16
77
49
49
121
82
66
146
99
90
166
123
74
146
99
33
85
57
0
32
16
24
36
24
99
101
90
123
150
107
181
211
148
198
227
140
189
227
123
181
227
115
173
215
115
165
199
132
132
154
107
99
113
82
66
73
57
16
36
8
8
36
8
16
56
24
33
73
49
49
89
74
33
73
66
16
65
41
0
48
24
0
32
8
8
36
8
24
48
24
49
69
49
66
81
66
74
85
74
74
73
66
57
56
49
41
40
24
0
16
0
24
60
33
66
130
82
99
199
140
132
247
181
189
247
82
206
255
82
239
255
66
247
251
57
247
251
49
231
255
74
189
255
99
165
247
123
140
239
156
90
174
132
49
109
90
8
48
33
8
28
16
49
65
49
74
93
66
99
113
74
140
142
82
140
150
82
132
150
82
123
150
90
99
117
74
74
93
57
33
56
33
16
40
24
0
36
24
0
44
33
33
65
57
33
60
41
16
36
16
16
36
8
49
73
41
107
134
90
132
166
107
189
219
140
206
219
123
206
219
115
206
223
115
189
219
123
181
215
148
148
174
132
90
109
90
49
60
49
8
20
0
24
48
24
49
93
66
57
121
90
82
146
132
74
146
123
82
146
115
57
117
82
33
81
49
16
48
33
16
36
24
16
32
24
33
40
41
49
48
49
57
48
49
49
36
33
41
32
24
8
16
0
33
69
33
57
125
82
90
195
140
123
247
181
173
251
90
189
255
99
222
255
82
231
255
74
231
251
74
214
255
90
181
251
115
156
243
132
123
215
148
57
142
99
24
77
57
0
32
24
24
40
24
82
97
74
115
138
99
140
162
107
173
182
99
189
195
107
173
195
107
165
195
115
140
162
99
140
158
99
99
113
74
66
81
57
41
52
41
16
28
24
8
16
16
0
8
0
8
16
0
41
52
24
66
89
57
82
121
74
140
162
107
181
203
132
189
199
115
206
215
123
214
227
132
198
215
123
173
199
132
123
150
107
90
109
90
33
52
41
0
20
0
41
73
49
82
134
99
90
162
123
123
203
156
132
215
165
123
203
132
115
186
123
99
162
115
74
125
90
33
73
57
0
32
24
8
20
16
24
24
24
41
32
33
41
24
24
33
20
16
8
12
0
33
65
41
49
113
74
74
178
132
107
235
173
140
247
99
165
255
107
189
255
107
206
255
115
198
251
107
181
247
115
165
251
140
132
231
140
90
186
132
41
121
90
0
44
33
16
36
33
74
81
66
115
130
90
148
178
115
173
203
123
189
207
115
214
227
123
206
219
123
198
215
123
181
211
123
165
190
115
140
170
107
99
121
66
82
85
49
57
52
24
41
44
24
24
32
8
8
28
0
16
44
16
33
60
33
82
101
66
123
125
82
173
170
123
173
195
132
181
203
140
181
207
140
181
199
140
165
178
123
115
125
82
74
93
66
0
28
8
16
56
41
66
113
90
107
166
123
148
219
156
148
227
148
156
247
140
156
243
123
156
243
123
140
227
140
99
186
123
57
138
99
33
97
74
24
52
41
8
12
0
24
16
8
41
28
16
33
20
16
8
8
0
33
44
41
49
97
82
57
154
115
99
227
181
123
247
115
148
255
123
165
251
123
173
251
123
173
243
123
165
243
132
148
243
148
115
215
140
66
154
107
16
81
49
0
36
24
41
60
49
107
117
90
156
162
107
173
199
115
189
227
123
206
235
115
214
239
115
206
219
107
206
219
115
198
223
132
181
211
132
165
195
123
132
154
99
99
101
66
66
52
24
41
36
16
16
28
8
0
28
8
8
36
16
16
40
24
41
60
33
66
73
33
107
109
66
115
138
99
132
162
115
140
166
123
132
150
107
132
134
90
99
101
66
57
73
41
0
28
0
16
69
49
74
134
107
123
195
140
165
239
156
165
243
123
173
251
107
189
255
99
181
255
107
173
255
140
140
235
148
99
195
140
66
146
107
41
89
66
24
44
24
0
8
0
16
12
0
8
8
0
0
0
0
33
32
33
49
81
74
49
134
107
74
186
148
99
219
115
123
239
132
140
247
140
156
251
140
156
247
140
148
239
140
132
223
140
90
178
115
49
121
82
0
44
16
8
40
24
74
93
66
140
150
107
181
195
123
198
211
115
214
235
115
206
243
90
214
247
90
214
235
90
214
235
115
214
235
132
198
215
140
181
186
132
148
150
115
115
109
90
57
48
41
24
24
16
16
28
24
8
40
33
16
52
33
8
40
24
0
32
8
8
44
0
24
56
16
41
69
41
74
97
74
99
113
90
90
101
82
90
93
66
74
77
49
33
44
16
0
24
0
33
85
57
90
162
115
132
219
140
173
255
148
181
255
115
206
255
99
214
255
74
214
247
74
206
251
115
181
247
140
140
223
148
90
178
123
57
117
82
24
65
41
8
32
16
0
20
8
8
20
8
8
16
8
16
28
24
33
65
49
41
109
82
66
154
123
74
178
107
107
211
132
123
235
148
132
243
156
132
239
148
123
227
140
107
195
123
66
134
82
41
89
57
0
28
8
33
65
41
99
117
82
148
166
107
198
207
123
206
215
107
222
239
107
206
239
74
214
251
74
214
243
90
214
239
107
214
227
132
198
207
140
165
170
132
123
134
107
74
77
66
24
36
33
16
36
33
41
77
66
74
117
99
99
146
115
90
146
107
66
125
74
33
93
41
8
65
16
0
36
8
16
36
24
33
48
41
41
52
49
49
52
41
49
48
33
24
28
8
8
32
16
49
97
74
90
170
123
123
219
140
165
251
132
189
255
99
222
255
82
239
255
57
239
247
57
222
247
90
198
247
123
156
239
140
123
207
140
74
150
107
33
89
66
8
44
24
0
20
8
8
28
16
8
28
16
0
12
0
8
28
16
24
73
49
57
121
99
57
134
99
82
170
123
90
199
140
99
211
148
90
203
132
90
190
132
90
158
115
57
101
66
16
44
24
0
24
0
66
89
57
115
142
90
148
178
107
198
223
123
214
223
107
231
239
99
214
243
66
222
251
74
222
243
90
206
227
99
206
215
123
198
203
140
140
154
115
90
105
90
8
44
24
0
56
41
33
101
74
90
162
115
123
203
140
148
227
148
148
235
140
132
219
123
115
203
123
74
154
90
41
89
66
8
40
33
8
24
33
16
24
33
24
28
24
33
32
24
24
24
8
16
32
16
41
85
66
82
154
107
123
211
132
156
247
123
181
255
90
214
255
66
247
255
49
255
255
49
239
251
74
206
243
99
165
243
123
140
231
148
90
174
123
41
105
74
8
48
33
0
12
0
8
28
8
24
40
24
8
20
0
0
16
0
8
44
24
41
85
66
33
81
74
57
117
99
66
154
115
74
170
132
66
170
123
66
154
107
66
121
90
41
69
49
8
20
0
24
36
16
90
109
74
132
158
99
156
190
107
198
223
123
206
231
107
222
235
90
222
243
82
222
243
82
222
239
99
206
223
115
198
207
132
173
178
132
90
105
74
24
56
33
0
48
16
41
117
74
99
182
123
148
227
148
165
243
140
165
243
115
173
251
107
165
251
107
156
251
140
132
227
148
115
182
140
66
113
99
33
60
66
16
32
41
16
20
16
24
24
8
16
20
8
8
20
8
16
48
41
57
109
82
107
182
123
156
235
132
181
255
107
206
255
82
222
255
49
247
255
49
239
255
74
206
247
90
165
247
115
148
239
148
99
182
123
33
101
74
24
52
41
0
16
8
16
32
16
41
56
33
41
44
24
24
32
8
8
24
16
16
40
24
16
32
41
33
65
66
41
97
82
49
125
99
49
130
99
49
113
82
49
81
66
24
32
24
24
20
8
57
52
41
90
109
74
132
158
107
156
195
115
181
219
115
198
227
107
206
227
99
222
231
107
214
219
99
206
227
123
189
207
123
165
174
115
115
125
90
41
60
33
0
32
0
24
93
49
107
186
115
156
235
140
189
251
132
214
255
115
222
251
90
239
255
74
222
255
90
156
243
107
140
235
140
132
223
165
90
162
132
41
89
82
16
40
33
0
12
0
16
16
0
24
32
16
16
28
16
8
24
24
24
60
57
74
121
90
115
178
115
148
231
123
173
255
99
198
255
74
214
255
66
222
255
90
198
255
99
165
255
132
148
243
148
99
182
132
49
105
82
24
40
33
16
20
16
33
36
16
57
56
33
57
60
33
49
52
33
24
28
16
8
16
16
16
12
16
24
24
33
8
44
41
24
69
57
24
81
66
33
73
57
33
56
49
16
16
16
41
28
24
66
60
49
90
97
66
123
146
99
156
190
123
173
211
123
189
227
123
198
227
123
214
219
132
198
199
123
189
207
132
165
178
123
115
125
90
66
77
49
24
44
16
24
65
33
82
158
99
148
235
148
165
247
132
181
247
107
231
255
90
247
251
66
255
251
49
231
255
66
189
255
115
148
251
148
132
231
156
82
170
123
41
97
74
16
52
33
16
24
0
41
40
16
49
60
33
49
56
41
16
28
33
8
28
41
33
60
57
66
113
82
115
190
115
148
243
123
165
255
99
181
255
90
189
255
99
181
251
115
156
247
132
132
227
140
90
170
123
57
101
82
16
28
24
41
32
24
66
60
41
74
69
41
82
81
49
82
85
66
57
60
49
41
48
41
66
48
49
33
28
24
0
16
8
0
24
16
8
40
33
8
32
24
8
16
16
16
12
16
41
28
24
66
52
41
99
93
74
107
117
82
132
154
99
165
190
123
165
195
115
189
211
140
189
199
140
173
170
132
140
158
115
115
134
99
66
81
57
16
32
16
24
52
24
57
109
66
99
186
115
140
239
140
173
255
140
198
255
115
222
255
90
239
251
66
255
255
57
231
255
74
189
255
123
148
247
148
115
215
140
82
162
115
33
85
57
0
32
8
24
36
0
66
69
33
82
89
49
82
89
66
74
81
82
49
56
66
16
28
33
0
40
24
41
113
66
99
186
107
132
235
123
156
255
132
165
239
123
165
243
140
148
243
156
123
215
148
90
158
123
33
77
57
8
8
8
57
44
33
74
73
41
90
93
57
107
109
74
99
101
74
90
93
82
74
77
74
99
89
74
74
69
49
33
40
24
16
24
8
8
24
16
0
16
8
8
8
8
16
16
16
41
36
33
57
48
41
90
81
66
99
97
74
123
125
90
132
150
107
123
150
99
140
162
115
140
150
115
123
125
107
90
109
82
66
85
66
33
48
33
8
32
16
41
73
49
82
134
90
115
199
132
148
247
156
165
255
148
181
255
132
198
251
107
214
247
90
214
251
74
198
243
82
156
247
123
132
231
148
107
186
132
57
121
82
16
56
24
8
36
0
49
65
16
90
105
49
107
121
66
115
125
82
115
130
107
99
113
107
66
81
74
24
52
41
8
60
33
8
85
33
82
174
99
123
219
140
156
231
156
156
227
165
132
219
156
99
186
140
74
134
107
33
69
49
16
20
8
66
60
41
82
89
57
107
113
74
123
130
90
115
130
90
107
121
99
90
105
90
107
121
74
90
105
66
66
77
41
49
52
24
33
36
24
16
20
8
8
12
8
16
20
16
16
24
16
33
32
24
49
48
33
66
60
49
82
81
66
90
97
74
82
97
66
99
113
82
90
101
82
74
85
66
49
69
49
24
44
24
8
24
8
16
36
16
49
85
66
90
142
107
90
178
123
115
219
148
132
239
156
140
247
148
165
251
148
165
251
140
165
251
132
148
243
123
115
219
132
99
190
132
74
134
99
24
65
41
8
28
8
33
52
16
82
105
57
123
142
82
148
170
99
156
178
115
165
182
123
148
174
132
123
146
115
74
105
82
24
65
33
0
40
8
16
85
49
66
142
99
115
174
140
132
186
156
107
178
140
74
150
115
49
101
74
8
44
24
16
40
16
66
81
57
90
117
74
115
146
90
140
162
107
148
166
115
140
162
115
123
150
107
123
150
82
115
138
82
99
105
66
74
77
49
57
56
41
33
32
24
8
20
8
8
24
16
0
24
8
8
28
8
16
32
16
24
32
16
41
44
24
41
48
33
41
52
33
49
65
49
41
56
41
33
56
41
24
44
33
8
28
16
8
24
8
16
40
24
49
77
57
66
113
82
82
142
107
99
178
132
107
195
140
115
207
148
123
215
148
115
211
140
107
207
132
99
190
123
74
174
123
57
134
99
33
69
49
16
28
16
24
32
16
74
77
49
115
134
82
140
166
99
181
203
123
189
211
123
189
215
132
181
211
132
165
203
132
140
170
115
99
117
74
49
77
49
0
40
16
16
65
49
57
93
82
82
125
115
82
142
123
57
117
99
24
69
49
0
24
8
24
56
24
74
105
66
107
142
90
140
170
107
165
190
132
173
190
132
165
190
132
148
182
123
156
195
123
140
170
107
115
130
82
90
93
57
66
65
41
33
36
24
0
24
8
0
32
16
0
36
8
8
48
16
8
48
16
8
40
8
8
32
8
0
20
0
0
16
0
0
20
8
8
28
8
8
28
8
8
24
8
0
20
0
0
20
0
8
32
16
24
44
24
33
56
33
41
73
57
66
97
74
66
105
82
74
121
99
74
134
107
74
130
107
66
125
99
57
117
90
33
105
82
16
69
57
16
28
24
24
24
16
57
52
41
99
101
74
132
154
107
156
186
115
181
211
123
198
227
115
206
235
115
206
235
115
198
231
123
181
211
123
148
166
99
107
125
82
33
60
33
8
40
24
16
36
33
41
69
66
57
93
82
41
77
66
16
44
24
0
28
0
41
69
33
90
121
82
123
162
107
156
190
132
189
207
140
189
207
132
181
215
132
173
207
115
173
215
132
156
186
115
132
146
90
99
105
74
66
69
49
24
32
16
0
28
8
8
48
24
24
89
49
49
117
74
57
121
82
57
121
82
57
113
74
49
93
66
41
77
57
24
60
49
16
36
24
8
20
8
0
12
0
8
12
0
8
24
8
8
28
8
8
28
8
8
28
8
8
16
8
24
28
16
16
24
16
16
36
24
16
52
41
16
52
49
24
60
49
24
56
57
0
44
41
0
28
24
16
24
16
49
44
41
82
73
57
107
109
74
140
162
115
181
207
140
189
223
123
198
235
115
214
243
99
214
239
90
206
231
99
206
227
107
189
203
115
156
174
115
99
117
74
41
65
41
16
32
24
16
32
33
16
40
33
8
32
24
8
20
8
24
40
16
57
85
49
107
138
90
140
174
123
173
203
140
206
215
140
206
215
132
198
227
123
181
223
107
181
211
132
165
186
123
140
150
107
115
113
82
66
69
49
16
28
16
16
44
24
41
93
66
49
130
90
82
174
123
82
182
123
90
186
132
99
186
132
90
166
123
74
138
107
57
97
82
49
60
57
24
28
24
16
8
8
33
28
24
41
52
41
33
56
41
33
60
41
41
60
41
49
52
41
57
52
41
33
36
24
24
36
16
8
36
16
0
24
0
0
20
0
0
16
8
8
16
24
8
12
16
24
28
16
57
56
41
82
81
57
107
109
74
140
158
115
181
207
140
189
227
123
198
239
107
214
243
90
222
235
74
222
231
82
222
231
99
206
227
115
189
215
132
140
162
99
82
105
66
41
65
41
16
32
16
0
16
8
8
16
8
24
16
0
49
48
24
74
89
49
123
142
99
156
178
123
181
203
140
214
211
140
214
215
123
206
227
107
198
231
90
198
223
148
173
195
132
148
154
115
107
105
82
49
52
33
0
20
8
16
69
41
82
150
107
107
199
132
140
239
156
132
243
148
132
243
148
132
239
156
123
219
148
107
182
132
74
121
90
57
73
66
33
28
33
24
12
8
49
44
41
74
85
66
74
101
74
74
109
74
90
117
82
90
101
74
99
101
74
74
81
57
66
77
49
49
69
41
24
44
24
24
36
16
24
24
16
24
20
24
24
12
16
33
24
16
57
48
33
82
77
57
107
109
74
140
154
107
165
195
123
181
223
123
198
235
107
222
243
90
239
247
90
247
243
90
239
243
99
206
231
107
181
219
115
156
182
107
107
134
82
74
93
57
24
48
24
8
24
8
24
28
16
41
28
16
66
52
33
82
89
57
132
142
99
156
182
123
189
207
140
214
215
140
214
215
123
206
227
107
198
231
99
189
215
140
156
174
115
148
142
115
107
93
82
16
32
24
16
65
41
41
125
82
99
195
123
148
239
132
165
251
123
165
255
115
165
255
115
148
255
132
140
243
132
123
207
123
82
142
90
57
81
66
8
12
8
41
48
33
74
81
57
99
113
74
115
134
82
132
158
99
132
158
99
132
154
99
115
138
90
107
121
82
90
105
74
66
81
57
49
56
41
41
44
33
33
28
24
24
20
16
24
16
16
33
20
24
41
24
24
66
52
41
99
101
74
115
130
74
148
174
99
181
219
115
198
227
107
206
231
99
222
239
99
239
247
107
231
239
99
214
231
99
206
227
107
181
203
123
123
146
90
74
105
57
41
69
33
16
40
16
16
32
16
33
28
16
49
48
33
82
81
49
115
121
74
156
174
107
181
211
132
198
223
132
198
227
123
198
227
123
206
235
123
198
219
148
165
174
115
140
125
99
74
65
57
0
28
16
33
93
66
82
178
115
140
235
140
181
251
115
206
255
107
206
255
82
198
255
90
173
255
115
156
255
132
132
223
140
90
158
107
33
60
41
8
20
8
57
69
41
99
113
74
132
146
90
148
170
107
173
190
115
165
190
115
156
186
115
148
174
107
123
146
99
107
121
82
90
97
74
66
69
57
41
44
33
33
28
24
8
12
8
8
12
8
16
16
16
8
8
8
24
28
16
57
65
41
82
101
57
123
154
82
165
195
107
189
219
115
214
235
123
222
239
115
222
239
107
222
231
99
214
227
90
206
227
107
181
199
115
123
146
90
82
105
57
41
65
33
16
40
16
16
32
16
24
28
16
33
36
24
82
85
57
99
109
66
132
150
90
165
190
115
181
215
123
189
223
132
189
215
123
189
211
123
156
182
115
123
146
90
99
101
74
33
36
24
8
44
24
66
125
82
140
211
132
181
239
123
222
239
90
255
247
74
247
247
57
231
255
74
198
255
107
165
247
132
123
207
140
66
134
90
8
48
24
24
44
24
82
101
66
132
150
99
165
186
123
181
203
132
189
211
132
189
215
132
181
211
132
173
199
132
140
166
107
115
134
90
99
109
82
66
73
57
33
32
24
16
20
16
8
24
16
8
36
24
16
44
41
0
32
24
0
32
16
8
40
24
41
65
33
82
109
57
132
150
90
173
190
115
206
219
132
214
227
123
206
227
115
214
235
115
214
235
107
206
223
115
189
199
123
140
146
99
90
101
66
41
52
33
8
20
8
8
20
16
8
12
8
8
12
0
33
36
24
66
73
41
107
121
82
148
162
107
173
190
123
189
203
132
198
207
132
206
211
132
123
146
82
99
113
66
66
77
49
16
40
16
24
85
49
90
166
107
165
239
148
189
239
107
247
243
82
255
247
66
255
247
57
247
251
74
214
255
115
173
243
140
115
190
132
41
113
82
0
36
8
41
69
33
107
130
82
148
174
115
181
207
140
189
219
140
189
219
132
189
219
132
181
215
132
181
211
140
148
170
115
115
130
82
90
109
74
57
65
41
16
24
8
8
20
8
24
56
41
33
81
57
41
97
82
33
93
74
16
77
57
0
56
33
8
44
16
33
56
24
99
109
74
140
146
99
181
186
123
189
207
123
189
215
123
206
231
123
198
231
115
181
207
107
156
166
99
115
117
74
66
77
49
24
32
24
0
20
16
16
40
41
24
52
49
24
56
41
0
20
0
16
44
16
49
77
49
90
113
74
132
142
99
148
158
107
156
162
99
165
158
99
107
113
74
74
77
41
33
48
24
0
40
16
24
113
66
82
186
115
156
251
148
181
251
107
239
255
90
255
251
66
247
243
57
231
247
74
198
251
115
156
231
140
99
174
132
33
97
66
0
36
8
66
89
49
115
142
90
156
190
123
189
219
140
198
227
140
189
227
132
198
227
132
181
215
132
181
215
140
148
178
115
107
134
82
82
101
66
41
52
33
16
28
8
16
44
33
33
93
66
49
130
90
66
150
115
66
154
115
49
142
107
24
101
74
8
56
41
8
32
16
49
52
41
90
89
66
140
146
107
165
178
123
173
195
123
181
211
123
173
207
107
148
178
90
132
146
90
82
85
57
33
44
33
8
28
33
16
56
57
57
105
107
66
125
107
57
125
99
16
85
57
0
65
33
0
44
24
16
52
33
66
85
66
107
113
90
123
117
82
123
109
74
74
60
41
41
40
24
0
20
8
0
52
24
33
130
82
82
195
123
140
247
148
165
255
132
206
251
99
222
251
90
222
247
82
214
251
107
173
243
123
123
203
115
66
134
90
0
52
33
16
52
16
82
109
66
132
154
99
173
203
132
189
219
140
198
231
132
198
231
132
198
227
132
189
219
132
181
207
132
148
174
107
107
134
82
66
85
49
16
40
16
16
40
24
41
81
57
57
130
90
82
170
123
90
190
132
99
203
140
99
195
140
74
162
115
57
113
82
33
69
49
8
20
8
33
40
33
82
93
74
123
142
107
132
158
107
140
174
107
140
174
99
123
150
82
107
121
74
49
60
33
8
36
24
16
60
57
57
117
115
99
174
156
107
182
140
99
182
123
90
178
123
57
138
82
8
81
49
0
48
33
8
44
33
41
56
49
74
73
49
82
77
57
41
20
24
33
24
24
8
16
16
24
65
49
41
125
90
66
178
123
107
223
148
140
243
148
165
243
132
181
243
132
173
247
132
173
251
140
132
223
132
82
162
99
41
93
57
0
28
0
41
69
41
99
121
74
132
158
99
181
207
140
181
211
132
189
219
132
198
223
132
189
219
123
189
211
123
165
190
115
132
158
99
99
121
74
41
65
33
0
28
8
16
52
33
57
109
82
82
166
115
115
215
148
123
227
148
132
231
148
140
235
148
132
215
140
123
182
132
90
134
99
24
60
41
8
32
24
24
48
33
66
89
66
90
109
74
107
125
82
107
125
82
82
109
57
49
73
33
0
32
0
0
52
33
57
121
99
115
190
156
148
231
173
148
235
148
156
243
140
156
239
140
132
215
132
90
170
107
41
109
74
0
56
41
0
24
16
0
20
8
16
28
8
24
4
16
33
20
24
0
4
8
8
44
33
8
77
49
33
117
82
74
162
107
99
190
132
140
215
148
140
211
140
123
207
132
115
203
132
82
170
107
41
113
66
24
65
41
8
24
0
49
65
41
99
113
74
132
146
99
181
203
140
181
203
123
189
211
123
198
219
132
189
211
123
189
207
132
156
170
107
123
146
90
90
113
74
24
56
24
0
24
0
24
65
49
74
130
99
99
195
132
140
247
156
156
251
148
165
247
132
173
251
140
173
243
140
156
227
148
123
182
123
90
142
107
16
60
41
0
24
8
24
48
33
57
69
49
74
85
66
74
81
57
49
60
33
24
52
16
0
44
0
33
101
66
107
182
140
148
235
165
156
247
148
173
247
115
198
255
115
181
247
99
173
243
115
148
227
140
107
186
132
57
130
99
24
77
57
8
40
24
8
24
8
24
12
16
41
28
33
33
28
33
16
24
16
0
20
8
0
32
16
33
73
49
49
93
74
74
113
90
66
117
90
66
134
99
66
138
107
41
113
82
16
69
41
16
32
16
24
28
16
66
69
49
90
97
74
123
130
90
156
170
115
181
195
132
189
203
132
189
207
132
181
195
123
173
186
123
148
158
107
99
117
74
74
97
66
8
44
16
0
40
16
41
93
74
90
158
123
132
223
148
148
243
132
181
251
123
198
255
115
198
251
107
198
251
107
173
247
123
156
235
140
99
182
115
57
125
82
16
69
41
0
28
8
16
28
16
57
52
49
57
48
49
33
36
24
0
20
0
24
77
24
57
134
74
115
207
132
156
247
148
181
255
115
222
255
90
222
255
66
222
255
74
214
255
90
181
247
123
148
219
140
99
178
123
49
109
74
16
48
24
0
24
0
41
36
24
57
56
49
66
65
49
66
65
57
49
60
49
41
52
33
33
44
33
16
28
16
16
32
16
16
40
24
8
52
41
0
52
33
0
44
24
0
28
16
16
20
16
33
24
24
57
56
41
90
89
66
107
113
82
132
138
99
140
158
99
156
166
107
173
182
123
165
174
115
148
154
99
123
134
90
90
101
66
66
85
57
8
40
16
0
48
33
49
109
90
99
174
132
140
231
148
165
251
123
198
251
107
222
251
90
222
251
74
214
255
82
181
255
107
156
247
123
123
223
132
74
162
99
33
97
57
8
40
24
16
20
16
41
28
33
41
24
33
24
20
24
0
28
8
33
85
49
74
150
90
132
219
140
165
251
140
181
255
99
222
255
74
239
255
57
239
255
66
222
255
82
181
243
115
156
231
132
115
186
132
49
113
74
16
48
24
8
32
16
66
81
41
99
109
74
107
117
82
115
130
90
123
130
99
115
117
90
99
101
74
66
69
41
57
52
24
41
48
24
24
40
24
8
28
16
0
20
8
8
20
24
33
20
33
33
24
33
33
36
24
57
65
49
74
85
57
90
105
66
107
121
74
123
134
90
140
146
99
132
134
90
123
121
82
107
109
82
82
85
66
49
69
49
0
36
16
8
60
41
57
121
99
107
186
140
148
239
140
173
251
115
214
255
90
239
251
74
247
251
57
231
255
66
198
255
90
165
255
115
140
251
148
90
190
115
57
125
82
24
60
33
16
20
8
24
12
16
24
8
16
16
8
24
16
28
24
49
81
66
74
142
107
123
211
140
156
243
140
173
251
107
214
255
90
222
255
74
222
255
74
206
251
90
173
247
123
148
227
140
99
170
123
33
85
57
8
36
24
33
40
41
107
130
66
140
162
99
156
178
115
173
186
123
173
190
123
181
186
132
173
182
132
156
162
107
132
130
82
107
105
66
66
73
49
49
52
33
41
40
33
24
28
33
24
12
24
16
8
16
24
28
24
24
40
24
24
44
16
49
69
41
74
93
57
82
101
66
99
113
74
99
105
74
99
101
82
90
93
74
74
77
66
41
52
41
0
24
8
16
65
49
57
125
99
107
186
140
156
239
148
181
255
115
222
255
82
247
251
57
255
251
41
239
255
49
206
255
82
165
255
115
132
243
140
99
199
123
74
142
99
33
73
49
16
24
16
24
16
16
33
16
24
24
16
33
16
16
33
33
52
49
66
113
90
107
182
132
148
231
148
173
251
132
189
255
115
198
255
99
198
251
99
189
251
115
165
239
140
123
199
132
57
125
82
0
48
33
24
36
33
74
73
74
148
174
90
181
207
123
198
223
132
206
227
132
198
227
123
198
219
123
189
219
123
173
203
115
156
178
107
123
142
82
90
101
66
74
77
49
49
48
41
16
20
16
8
8
16
8
20
16
8
32
24
0
28
8
0
20
0
0
32
0
8
40
8
16
44
8
49
65
33
66
73
49
82
77
66
74
73
66
66
65
57
33
40
33
0
16
0
16
69
41
57
125
90
115
186
132
156
239
148
181
251
115
222
255
82
247
255
57
247
255
41
239
255
49
206
255
82
173
255
115
140
235
140
99
195
132
74
138
99
24
60
41
8
20
0
33
28
16
41
36
33
33
32
33
24
16
33
16
28
33
33
65
57
66
125
90
115
190
132
148
231
148
156
239
140
156
239
132
156
239
140
156
235
148
123
203
140
66
138
90
16
73
49
8
40
24
57
69
66
132
125
123
189
215
115
206
231
123
206
231
115
214
239
115
214
239
107
206
235
107
198
235
107
181
219
107
165
207
123
132
170
107
107
130
90
82
89
66
41
44
33
8
12
8
16
28
16
41
69
57
41
85
66
41
89
66
24
81
49
24
77
49
8
56
24
0
32
8
16
40
16
33
44
24
57
52
49
49
44
41
49
48
49
24
32
24
0
16
0
24
69
41
57
117
82
107
182
123
156
235
140
181
247
123
214
255
82
239
255
57
247
255
41
239
255
57
206
255
90
181
251
123
148
235
156
99
182
132
57
113
82
8
44
24
0
20
0
33
48
24
49
60
41
49
56
49
49
52
49
24
28
24
8
28
16
8
48
24
41
97
57
82
150
107
99
178
123
115
195
140
115
195
148
99
174
132
57
125
90
16
69
41
8
40
16
41
60
41
107
117
90
165
170
148
206
227
123
214
231
115
214
227
99
222
239
99
231
239
90
222
239
82
214
243
107
198
235
115
173
215
132
140
178
123
99
130
99
57
77
66
16
36
24
0
24
8
24
65
33
66
117
82
66
125
90
74
146
115
74
146
115
66
134
99
41
105
74
16
69
41
8
40
16
0
12
0
24
28
24
24
20
24
41
36
41
24
28
24
0
16
0
24
65
33
41
105
66
99
166
107
148
227
140
173
243
115
206
255
90
222
255
57
231
255
49
222
255
57
198
251
99
173
239
132
148
219
165
82
146
115
24
81
66
0
40
24
16
44
16
57
77
49
74
97
66
82
105
74
90
105
74
57
73
49
41
52
24
16
32
0
16
36
8
33
65
41
33
85
66
57
113
99
57
109
107
41
93
82
16
52
41
8
28
8
33
48
16
82
97
49
132
154
90
173
199
132
189
215
115
206
227
115
222
231
107
239
247
107
231
243
99
214
231
82
198
231
99
189
227
115
173
207
132
132
170
123
90
109
90
41
60
49
16
36
24
16
52
33
49
105
66
82
154
99
99
182
123
123
207
148
123
203
148
115
195
132
99
178
123
82
150
107
57
109
82
16
56
41
8
24
16
8
12
16
41
32
33
24
28
16
0
12
0
16
56
24
33
85
49
82
150
99
140
219
140
156
239
132
189
255
107
206
255
82
206
255
74
206
255
82
181
247
115
165
231
140
132
195
148
57
109
90
16
52
33
16
44
24
49
73
41
82
109
66
99
130
82
115
146
99
115
142
90
107
125
82
115
117
82
74
81
49
41
48
24
16
28
16
0
20
16
0
36
33
16
44
49
8
32
41
8
16
16
24
24
16
57
65
41
99
117
66
132
166
90
165
207
123
189
207
115
198
219
123
206
223
123
214
231
123
206
231
115
189
227
115
189
227
123
181
219
132
148
170
115
123
142
107
82
85
66
24
36
24
8
36
16
33
93
66
74
162
123
99
207
140
132
243
148
132
243
140
140
239
132
156
247
148
140
235
148
107
203
132
74
158
107
33
101
74
16
48
41
8
24
24
8
8
0
33
32
16
16
28
8
0
24
0
16
56
33
74
130
99
99
186
132
132
231
148
165
255
148
173
255
132
165
255
115
156
251
123
156
251
148
140
223
148
90
158
115
16
60
33
8
32
8
49
60
33
90
97
57
123
138
82
140
162
107
148
178
115
156
186
123
156
174
123
123
142
107
107
117
90
90
105
90
57
69
49
16
36
16
16
36
24
0
8
0
8
12
16
24
16
24
41
36
33
66
69
57
82
105
66
107
146
82
132
182
107
156
178
107
173
195
123
181
199
123
189
207
123
189
215
132
181
211
132
165
199
123
140
170
107
123
142
99
99
109
74
57
60
41
16
32
8
16
52
24
49
121
82
90
190
140
115
235
156
148
255
140
165
255
123
173
251
115
181
255
123
165
251
132
140
235
140
107
207
140
66
150
115
33
89
74
24
44
41
8
12
0
33
28
16
16
24
8
8
24
8
16
36
24
49
89
74
74
150
115
107
203
148
140
235
156
148
251
148
140
251
140
148
251
148
132
231
156
90
178
123
57
117
82
8
48
16
24
44
16
82
85
49
123
130
82
165
178
115
181
203
140
189
219
148
181
211
132
181
203
132
173
190
140
148
162
123
115
130
107
90
97
82
66
73
49
41
48
33
24
32
24
16
20
16
8
8
16
16
16
16
24
40
33
41
69
41
66
105
57
99
146
90
57
77
33
99
113
74
132
142
90
148
158
107
148
166
107
140
162
107
123
150
99
99
121
74
82
101
66
49
69
41
24
32
8
8
36
8
33
85
49
74
154
107
107
219
156
140
255
165
165
255
123
198
255
107
214
251
90
206
243
90
189
243
99
173
243
123
140
227
148
90
178
123
49
117
99
24
60
49
0
12
0
24
24
16
33
32
16
24
32
24
8
20
33
8
36
41
49
109
90
90
174
132
132
219
148
140
235
148
140
239
148
140
239
156
123
207
140
66
134
90
24
73
41
8
40
16
49
69
33
99
117
74
140
158
99
173
195
123
181
211
132
181
219
132
189
223
123
189
215
115
189
211
140
165
186
132
123
134
99
99
109
82
74
77
57
24
28
16
0
8
0
16
28
24
24
44
41
24
44
41
8
32
24
0
20
8
16
36
16
49
69
41
0
28
0
24
48
24
41
60
33
66
77
41
82
89
57
82
89
57
82
97
57
66
81
49
49
65
41
24
36
16
8
24
0
24
52
24
57
113
74
90
174
115
107
223
156
140
251
156
181
251
123
214
255
107
239
251
82
239
251
74
222
251
82
198
247
107
156
239
140
107
199
140
57
134
107
16
69
57
0
16
0
33
32
24
49
48
41
57
52
49
24
24
41
0
16
33
16
56
49
57
121
90
99
178
123
115
203
132
115
203
123
107
195
123
90
158
107
41
93
57
0
36
16
24
48
24
74
97
57
123
150
99
156
186
115
181
215
132
189
223
140
189
223
123
198
231
115
189
219
115
189
211
123
173
186
123
132
146
99
99
109
82
57
69
41
8
24
8
8
40
16
33
73
49
57
105
74
74
121
90
82
125
99
66
105
74
41
69
41
24
52
24
57
109
82
33
73
49
0
28
8
8
24
8
33
36
16
41
40
24
41
48
33
33
44
33
33
40
33
8
24
16
8
24
16
33
65
41
66
117
82
90
166
115
107
211
148
140
239
148
181
247
123
214
251
90
239
247
66
255
255
66
239
251
74
206
247
90
173
247
140
132
223
156
66
150
115
16
77
57
0
24
8
41
48
33
66
65
49
82
77
74
49
48
66
24
28
41
8
28
24
33
73
49
57
117
74
82
158
107
90
166
107
82
146
99
66
109
82
24
60
41
8
28
16
49
60
41
90
117
82
140
166
115
165
199
123
181
219
132
189
231
132
189
223
115
198
223
115
198
223
115
189
203
115
156
174
99
123
138
90
66
85
49
16
52
16
0
52
16
41
109
66
74
154
99
107
190
123
123
203
123
140
215
140
140
211
140
115
182
115
90
154
90
123
203
173
82
154
123
41
89
66
33
60
41
33
40
24
16
16
8
16
20
16
24
24
16
16
24
24
0
16
8
8
20
16
24
52
41
49
97
74
82
142
107
115
195
148
148
235
165
173
247
132
198
251
107
231
243
74
247
255
74
231
251
74
198
243
90
165
251
140
140
231
165
82
162
123
16
81
66
0
28
8
49
56
33
74
77
49
99
97
74
82
81
74
57
65
66
24
36
33
16
44
33
16
65
33
49
109
74
66
130
90
57
113
82
49
77
57
16
32
24
24
32
24
66
77
66
107
121
90
140
170
115
156
199
123
173
215
123
189
223
123
181
215
115
189
219
115
198
215
123
173
182
107
140
146
82
82
97
57
16
44
8
0
44
8
24
97
49
74
162
90
132
219
132
173
251
140
173
247
123
173
239
115
173
243
123
173
243
132
165
243
132
123
243
189
115
219
165
90
162
123
74
113
82
41
56
41
8
12
0
16
16
8
24
24
24
16
24
24
8
16
24
8
16
24
16
32
33
33
56
49
57
97
82
90
150
123
123
199
148
148
235
148
173
251
132
206
255
115
222
255
107
206
255
90
189
255
107
165
255
148
140
235
165
82
154
123
16
77
57
8
32
8
57
73
41
90
101
57
115
125
82
107
121
74
90
105
74
57
69
49
24
44
24
0
28
8
16
52
24
33
73
49
33
65
49
24
44
41
0
8
8
41
40
41
82
81
74
107
117
90
140
162
115
165
199
132
181
211
123
198
227
132
189
223
132
181
207
132
165
186
123
148
154
107
107
109
74
49
65
33
0
40
8
16
89
49
74
158
99
140
227
140
173
247
132
206
247
107
222
247
90
239
255
90
239
255
99
206
255
99
189
251
90
123
255
181
115
235
173
90
178
123
66
117
82
33
56
33
16
16
8
16
20
16
24
24
24
41
40
41
33
36
41
24
28
33
16
24
24
8
28
24
24
52
49
57
97
82
82
138
107
99
190
123
132
227
140
173
243
132
181
247
123
173
247
115
165
251
123
156
255
156
123
219
148
82
146
107
24
69
49
16
36
16
74
93
66
107
125
74
132
154
90
132
154
82
123
138
74
99
113
74
57
73
49
16
32
8
8
28
8
8
36
16
16
36
24
24
36
33
8
16
16
49
52
57
90
89
82
107
109
90
132
146
107
156
170
115
156
178
107
165
195
107
156
186
107
148
174
123
115
134
90
99
101
74
74
73
49
16
32
16
8
52
33
57
138
99
107
207
140
148
243
148
181
251
115
222
247
82
247
251
66
255
255
66
247
255
57
214
255
66
206
255
74
115
255
173
107
227
156
82
170
115
49
97
57
16
40
8
16
24
0
33
32
16
41
48
41
57
65
57
57
60
57
57
60
57
49
56
49
24
36
24
0
20
8
8
40
33
33
77
57
57
134
90
99
190
132
132
215
140
148
235
148
148
251
148
148
251
148
132
239
156
115
207
148
74
130
99
16
52
41
33
52
41
82
101
74
123
146
90
156
186
107
173
195
99
156
178
90
132
154
90
90
109
66
57
69
41
24
40
16
8
16
8
0
8
8
8
20
16
16
28
24
41
44
41
74
81
74
99
97
82
115
113
90
132
130
90
140
146
90
140
162
99
123
150
90
99
125
90
82
105
82
74
77
66
33
32
24
16
28
24
41
81
66
74
158
123
123
223
156
148
251
148
181
255
123
222
255
90
247
255
74
255
251
57
239
251
57
214
255
66
198
255
74
123
243
173
90
195
132
49
121
66
16
56
16
8
28
0
33
36
16
66
69
49
82
89
66
82
97
74
82
101
74
90
101
82
90
101
74
74
85
66
49
65
41
16
44
24
0
36
8
0
56
33
41
109
74
82
158
107
107
195
132
115
219
140
115
223
148
115
219
148
107
190
140
66
109
90
16
40
24
33
56
49
107
121
99
148
178
123
181
211
132
198
219
107
189
211
99
165
190
107
123
138
82
82
93
57
49
56
33
24
28
16
8
12
8
0
16
16
0
24
16
8
24
16
41
52
41
66
69
57
90
89
66
107
101
74
107
105
66
99
109
66
74
97
49
66
93
66
49
65
49
33
40
33
16
20
16
24
40
41
57
101
90
82
162
132
115
215
165
140
243
148
165
251
123
198
251
99
214
251
82
214
247
74
214
251
82
198
255
90
189
255
99
107
190
140
57
134
90
16
65
33
8
32
8
33
40
24
66
69
49
99
101
74
115
125
90
123
142
99
132
154
107
132
154
99
123
146
90
115
138
82
99
125
74
57
97
41
24
60
16
16
36
8
16
40
24
24
65
41
57
121
82
74
162
115
90
186
132
90
186
132
66
142
99
41
81
57
8
28
16
41
60
57
123
142
123
165
195
140
189
219
140
206
219
107
206
219
99
189
215
123
148
170
99
107
117
74
74
77
49
33
36
24
8
16
8
0
20
8
0
24
8
0
36
16
16
44
16
33
40
24
49
48
33
66
60
41
66
69
41
66
81
41
49
69
33
33
56
33
16
28
8
8
20
8
16
24
16
33
56
49
66
105
99
82
150
123
99
190
148
132
235
165
140
251
156
165
255
140
173
255
132
173
255
132
181
255
132
165
247
132
148
235
123
66
121
90
24
73
49
8
32
16
33
40
24
74
69
57
99
101
82
123
130
90
132
150
99
148
178
115
165
190
123
165
195
123
156
186
107
148
178
99
140
174
99
123
158
82
99
130
66
90
89
57
41
44
24
0
24
0
16
56
33
33
97
66
49
134
90
66
138
99
33
97
66
33
56
41
16
36
24
74
85
74
148
162
140
181
211
156
206
231
140
214
227
107
214
227
99
198
223
123
165
190
115
132
142
90
90
93
66
33
36
24
8
24
16
0
32
16
8
52
24
0
44
8
0
40
8
0
16
0
0
16
0
8
16
0
8
20
0
16
32
8
8
32
0
8
32
8
0
16
0
8
20
8
16
32
16
33
48
41
41
73
66
41
97
74
57
130
90
74
162
107
90
190
115
107
211
123
115
219
132
123
219
132
132
215
140
107
186
123
90
162
99
33
65
57
16
40
33
16
28
24
49
52
49
90
89
74
115
121
99
140
158
115
156
186
123
165
203
123
181
215
123
189
223
132
198
223
123
189
215
123
181
207
115
156
195
107
148
174
99
132
138
90
90
89
57
49
52
24
24
48
24
0
44
16
0
56
24
33
81
57
24
69
49
8
28
16
33
40
24
99
109
82
156
174
132
189
215
140
214
239
140
222
235
107
222
235
107
206
227
115
189
211
123
148
162
107
90
105
74
16
36
16
8
36
24
16
65
33
41
97
57
41
105
57
41
101
57
33
85
49
33
77
49
33
65
49
16
48
33
16
44
24
8
32
8
8
24
0
0
12
0
8
20
0
8
24
8
8
28
16
16
32
16
8
36
16
24
60
33
33
81
41
41
101
57
49
117
74
66
130
90
82
142
107
90
138
115
90
121
107
74
101
82
8
24
24
8
24
16
33
36
33
74
73
66
99
105
90
123
134
99
148
174
115
173
207
132
181
223
123
181
223
115
198
223
115
206
227
115
214
227
123
206
223
123
189
211
115
173
199
115
156
174
115
140
142
99
107
105
66
74
77
41
16
36
8
0
20
0
0
36
16
8
32
16
8
20
8
41
48
33
115
121
82
156
174
115
189
215
115
214
239
115
222
235
99
222
235
99
206
227
107
198
219
132
148
166
107
74
101
57
0
32
8
16
60
33
49
101
66
74
142
90
82
154
99
90
162
107
82
150
107
74
142
107
66
121
99
41
93
74
33
77
57
16
48
33
16
32
8
8
16
0
8
20
8
16
24
16
24
32
24
24
40
24
24
36
8
24
48
16
8
32
0
0
36
8
0
36
16
0
36
24
8
44
41
24
48
49
24
48
49
24
40
41
0
8
0
8
20
16
41
44
41
74
77
66
90
105
82
107
134
90
132
170
99
156
203
115
181
227
123
189
223
107
198
219
107
206
215
107
214
219
123
222
223
132
214
223
132
198
219
140
173
211
140
156
195
132
132
150
99
107
113
74
66
73
49
33
40
16
16
32
16
0
16
8
41
40
33
66
69
41
132
130
74
173
186
99
198
223
107
214
247
107
222
243
90
231
247
99
214
227
107
206
219
132
132
154
90
49
89
49
0
32
8
41
97
66
90
154
107
123
190
140
132
207
140
132
219
156
115
207
148
99
190
148
90
170
140
74
142
115
57
109
90
33
69
49
16
28
16
24
24
16
41
40
41
49
52
49
66
73
66
82
93
74
74
93
57
82
97
57
74
85
49
57
73
41
49
48
41
33
36
33
16
28
33
8
24
24
0
28
8
0
32
8
8
12
8
16
24
16
41
40
33
57
65
41
74
89
57
90
121
74
115
166
90
148
199
107
165
215
107
189
227
107
214
231
115
214
223
115
222
219
123
231
223
132
222
219
140
198
219
140
173
223
148
165
219
148
156
174
115
140
138
90
107
105
74
74
69
49
49
52
49
33
40
33
49
44
33
66
60
33
115
121
57
165
178
82
198
227
90
214
243
90
214
243
74
231
247
90
214
227
107
198
215
123
115
146
82
41
85
41
0
44
16
74
134
99
132
195
156
156
231
173
156
239
173
156
255
181
140
243
181
123
227
181
107
203
165
90
166
140
57
113
90
24
56
41
8
12
8
33
28
24
74
65
74
90
89
90
107
113
107
123
134
115
123
142
99
132
146
99
132
138
99
115
117
82
99
93
82
82
77
82
57
56
57
16
36
24
0
28
0
0
28
0
